<svg xmlns="http://www.w3.org/2000/svg" viewBox="0 0 512 512">
  <rect width="512" height="512" rx="112" fill="#8ed8c3"/>
  <circle cx="256" cy="265" r="176" fill="#d98235"/>
  <circle cx="256" cy="275" r="137" fill="#f3b85b"/>
  <circle cx="155" cy="148" r="55" fill="#f3b85b" stroke="#a9562c" stroke-width="18"/>
  <circle cx="357" cy="148" r="55" fill="#f3b85b" stroke="#a9562c" stroke-width="18"/>
  <circle cx="205" cy="245" r="25" fill="#fffaf0"/>
  <circle cx="307" cy="245" r="25" fill="#fffaf0"/>
  <circle cx="205" cy="247" r="10" fill="#3d2b2d"/>
  <circle cx="307" cy="247" r="10" fill="#3d2b2d"/>
  <path d="M237 290c13-13 25-13 38 0-12 17-26 17-38 0Z" fill="#63352d"/>
  <path d="M256 301v18M256 319c-25 28-49 21-59 5M256 319c25 28 49 21 59 5" fill="none" stroke="#63352d" stroke-width="12" stroke-linecap="round"/>
  <circle cx="166" cy="300" r="14" fill="#e88d72" opacity=".7"/>
  <circle cx="346" cy="300" r="14" fill="#e88d72" opacity=".7"/>
</svg>
